<?xml version="1.0" encoding="UTF-8"?>
<svg id="Layer_1" xmlns="http://www.w3.org/2000/svg" viewBox="0 0 100 96.25">
  <defs>
    <style>
      .cls-1 {
        fill: #fff;
      }
    </style>
  </defs>
  <path class="cls-1" d="M73.75,96.25c-3.9-.59-7.37-2.39-10.93-3.9-6.49-2.74-12.94-2.61-19.48-.25-3.19,1.15-6.38,2.3-9.62,3.26-2.5.74-5.13,1.05-7.69.27-4.06-1.23-6.31-4.13-7.15-8.24-.49-2.38.32-4.58.89-6.8,1.94-7.57,5.67-14.24,10.5-20.31,4.33-5.44,10.05-8.69,16.86-9.94,7.03-1.29,13.15.78,18.59,5.27,4.42,3.65,7.93,8.08,11.13,12.78,2.59,3.8,5.07,7.66,6.68,12.01.86,2.33,1.43,4.7,1.38,7.21-.09,4.53-2.99,7.13-6.47,8.14-.77.22-1.57.33-2.35.49h-2.34Z"/>
  <path class="cls-1" d="M68.44,0c1.84.39,3.59,1,5.05,2.24,2.93,2.47,4.63,5.64,5.09,9.42.24,2.03.45,4.11.29,6.14-.53,6.91-3.05,12.85-8.98,16.89-1.81,1.24-3.79,2.19-6.09,2.04-2.9-.19-5.26-1.53-7.15-3.66-2.49-2.79-3.7-6.15-4.01-9.84-.49-5.93.79-11.45,4.09-16.43,2.29-3.46,5.4-5.86,9.56-6.7.04,0,.08-.06.12-.1.68,0,1.35,0,2.03,0Z"/>
  <path class="cls-1" d="M100,42.19c-.26,1.66-.38,3.35-.81,4.97-1.43,5.4-4.23,9.9-9.08,12.92-1.81,1.13-3.8,1.79-5.92,1.95-3.51.27-6.14-1.33-8.03-4.14-2.16-3.22-2.74-6.79-2.19-10.63.5-3.49,1.51-6.77,3.37-9.77,2.25-3.63,5.24-6.39,9.34-7.87,5.64-2.04,9.75.93,11.77,4.98.77,1.54,1.27,3.17,1.43,4.89.01.12.08.24.12.36v2.34Z"/>
  <path class="cls-1" d="M0,41.56c.25-1.27.44-2.54.75-3.79,1.38-5.72,8.17-8.51,13.39-5.79,6.78,3.53,10.6,9.17,11.82,16.64.47,2.89.34,5.76-.66,8.52-1.22,3.37-3.52,5.67-7.14,6.37-2.1.41-4.08-.2-5.96-1.06-5.84-2.65-9.39-7.29-11.24-13.3C.5,47.66.31,46.07,0,44.53c0-.99,0-1.98,0-2.97Z"/>
  <path class="cls-1" d="M20.31,15.6c.04-4.21.74-7.94,3.29-11.09C25.8,1.81,28.5.07,32.15.48c2.35.26,4.42,1.3,6.28,2.72,3.69,2.83,5.89,6.66,7.14,11.06,1.43,5.05,1.76,10.12-.28,15.11-1.4,3.42-3.61,6.05-7.32,7.11-1.69.48-3.36.46-5.03-.18-4.86-1.87-8.09-5.42-10.25-10.04-1.62-3.46-2.31-7.13-2.38-10.65Z"/>
</svg>